<mxfile host="app.diagrams.net" modified="2024-03-10T09:16:57.224Z" agent="Mozilla/5.0 (X11; Linux x86_64) AppleWebKit/537.36 (KHTML, like Gecko) Chrome/122.0.0.0 Safari/537.36" version="24.0.4" etag="VHf86ZJbilmf4HlyQNiw" type="github">
  <diagram name="第 1 页" id="eIAm4l-J7gGkj9yF4gD6">
    <mxGraphModel>
      <root>
        <mxCell id="0" />
        <mxCell id="1" parent="0" />
      </root>
    </mxGraphModel>
  </diagram>
</mxfile>
